<?xml version="1.0" encoding="UTF-8"?>
<svg xmlns="http://www.w3.org/2000/svg" xmlns:xlink="http://www.w3.org/1999/xlink" width="24px" height="24px" viewBox="0 0 24 24" version="1.1">
<g id="surface1">
<path style=" stroke:none;fill-rule:nonzero;fill:rgb(95.294118%,72.941176%,18.431373%);fill-opacity:1;" d="M 24 12 C 24 18.628906 18.628906 24 12 24 C 5.371094 24 0 18.628906 0 12 C 0 5.371094 5.371094 0 12 0 C 18.628906 0 24 5.371094 24 12 Z M 24 12 "/>
<path style=" stroke:none;fill-rule:nonzero;fill:rgb(100%,100%,100%);fill-opacity:1;" d="M 9.085938 10.804688 L 12 7.890625 L 14.914062 10.804688 L 16.609375 9.109375 L 12 4.5 L 7.390625 9.109375 Z M 4.5 12 L 6.195312 10.304688 L 7.890625 12 L 6.195312 13.695312 Z M 9.085938 13.195312 L 12 16.109375 L 14.914062 13.195312 L 16.609375 14.890625 L 12 19.5 L 7.390625 14.890625 Z M 16.109375 12 L 17.804688 10.304688 L 19.5 12 L 17.804688 13.695312 Z M 13.71875 12 L 12 13.71875 L 10.28125 12.003906 L 10.277344 12 L 10.582031 11.695312 L 10.730469 11.550781 L 12 10.28125 Z M 13.71875 12 "/>
</g>
</svg>
